<svg xmlns="http://www.w3.org/2000/svg" viewBox="0 0 64 64">
  <path fill="#073f46" d="M18 13h25.5c1.5 0 3 .6 4 1.7l8.8 8.8c1.1 1.1 1.7 2.5 1.7 4V43c0 5.5-4.5 10-10 10H18c-5.5 0-10-4.5-10-10V23c0-5.5 4.5-10 10-10Z"/>
  <path fill="#0f5d63" d="M43.5 13c1.5 0 3 .6 4 1.7l8.8 8.8c.8.8 1.3 1.7 1.5 2.8H46c-1.4 0-2.5-1.1-2.5-2.5V13Z"/>
  <path fill="#fff7e8" d="M28 25.5v13c0 1.6 1.8 2.5 3.1 1.6l9.8-6.5c1.2-.8 1.2-2.4 0-3.2l-9.8-6.5c-1.3-.9-3.1.1-3.1 1.6Z"/>
  <path fill="#e8ffff" d="M16 21h4.5v5H16zm0 10h4.5v5H16zm0 10h4.5v5H16zm30-10h4.5v5H46zm0 10h4.5v5H46z" opacity=".92"/>
  <path fill="none" stroke="#0b4d55" stroke-linecap="round" stroke-width="4" d="M9.5 39.5c-6 7.8-3.3 15.3 6.6 17.9 12.7 3.4 32.4-3.5 43.6-15.3 6.8-7.2 8.3-14.1 4-18.2"/>
  <path fill="none" stroke="#fff7e8" stroke-linecap="round" stroke-width="4" d="M33.8 56.4c3.3-.8 6.6-2 9.8-3.6m5.7-3.2c1.6-1 3.1-2.2 4.5-3.4"/>
  <circle cx="55" cy="18" r="6.2" fill="#f7a928" stroke="#fff7e8" stroke-width="3"/>
</svg>
